<svg xmlns="http://www.w3.org/2000/svg" viewBox="0 0 32 32" fill="none">
  <defs>
    <linearGradient id="g" x1="0" y1="0" x2="32" y2="32">
      <stop offset="0%" stop-color="hsl(250, 80%, 60%)" />
      <stop offset="100%" stop-color="hsl(270, 85%, 65%)" />
    </linearGradient>
  </defs>
  <rect width="32" height="32" rx="8" fill="url(#g)" />
  <path d="M16 7 C12 7 9 10 9 14 C9 17 11 19 13 20 L13 23 C13 24.1 13.9 25 15 25 L17 25 C18.1 25 19 24.1 19 23 L19 20 C21 19 23 17 23 14 C23 10 20 7 16 7Z" fill="white" opacity="0.95"/>
  <circle cx="13.5" cy="13.5" r="1.5" fill="hsl(250, 80%, 60%)" />
  <circle cx="18.5" cy="13.5" r="1.5" fill="hsl(250, 80%, 60%)" />
  <path d="M13 17 Q16 19.5 19 17" stroke="hsl(250, 80%, 60%)" stroke-width="1.2" fill="none" stroke-linecap="round"/>
</svg>
